<?xml version="1.0" encoding="UTF-8"?>
<svg width="16px" height="16px" viewBox="0 0 16 16" version="1.1" xmlns="http://www.w3.org/2000/svg" xmlns:xlink="http://www.w3.org/1999/xlink">
    <title>cloudide_plugin_icon</title>
    <g id="cloudide_plugin_icon" stroke="none" stroke-width="1" fill="none" fill-rule="evenodd" stroke-linejoin="round">
        <path d="M9.82591259,1 C11.002496,1 11.9563053,1.9538093 11.9563053,3.13039269 C11.9563053,3.72704153 11.71103,4.26640326 11.3158089,4.65314856 L12.9997234,4.65210176 C14.1042929,4.65210176 14.9997234,5.54753226 14.9997234,6.65210176 L15.0000144,9.03498763 C14.634989,8.64425384 14.1151412,8.4 13.5382448,8.4 C12.4336753,8.4 11.5382448,9.2954305 11.5382448,10.4 C11.5382448,11.5045695 12.4336753,12.4 13.5382448,12.4 C14.1151412,12.4 14.634989,12.1557462 15.0000144,11.7650124 L14.9997234,12.9997234 C14.9997234,14.1042929 14.1042929,14.9997234 12.9997234,14.9997234 L6.65210176,14.9997234 C5.54753226,14.9997234 4.65210176,14.1042929 4.65210176,12.9997234 L4.65314856,12.020289 C4.26640326,12.4155101 3.72704153,12.6607854 3.13039269,12.6607854 C1.9538093,12.6607854 1,11.7069761 1,10.5303927 C1,9.3538093 1.9538093,8.4 3.13039269,8.4 C3.72704153,8.4 4.26640326,8.64527524 4.65314856,9.0404964 L4.65210176,6.65210176 C4.65210176,5.54753226 5.54753226,4.65210176 6.65210176,4.65210176 L8.33601629,4.65314856 C7.94079514,4.26640326 7.6955199,3.72704153 7.6955199,3.13039269 C7.6955199,1.9538093 8.64932919,1 9.82591259,1 Z" id="cloudide_plugin_icon_path" stroke="#979797"></path>
    </g>
</svg>
